<mxfile host="app.diagrams.net" agent="Mozilla/5.0 (Windows NT 10.0; Win64; x64) AppleWebKit/537.36 (KHTML, like Gecko) Chrome/132.0.0.0 YaBrowser/25.2.0.0 Safari/537.36" version="26.1.0">
  <diagram name="Страница — 1" id="IQeq5Dvrk167f288iLWq">
    <mxGraphModel dx="1500" dy="947" grid="1" gridSize="10" guides="1" tooltips="1" connect="1" arrows="1" fold="1" page="1" pageScale="1" pageWidth="827" pageHeight="1169" math="0" shadow="0">
      <root>
        <mxCell id="0" />
        <mxCell id="1" parent="0" />
        <mxCell id="Qwn-BGKayNcmydiOAecQ-1" value="" style="rounded=0;whiteSpace=wrap;html=1;movable=1;resizable=1;rotatable=1;deletable=1;editable=1;locked=0;connectable=1;" parent="1" vertex="1">
          <mxGeometry x="150" y="170" width="690" height="500" as="geometry" />
        </mxCell>
        <mxCell id="Qwn-BGKayNcmydiOAecQ-9" value="&lt;p style=&quot;margin:0px;margin-top:6px;text-align:center;&quot;&gt;&lt;b&gt;Component&lt;/b&gt;&lt;/p&gt;&lt;hr size=&quot;1&quot; style=&quot;border-style:solid;&quot;&gt;&lt;p style=&quot;margin:0px;margin-left:8px;&quot;&gt;Модуль управления заказами&lt;/p&gt;" style="align=left;overflow=fill;html=1;dropTarget=0;whiteSpace=wrap;" parent="1" vertex="1">
          <mxGeometry x="435" y="190" width="180" height="90" as="geometry" />
        </mxCell>
        <mxCell id="Qwn-BGKayNcmydiOAecQ-10" value="" style="shape=component;jettyWidth=8;jettyHeight=4;" parent="Qwn-BGKayNcmydiOAecQ-9" vertex="1">
          <mxGeometry x="1" width="20" height="20" relative="1" as="geometry">
            <mxPoint x="-24" y="4" as="offset" />
          </mxGeometry>
        </mxCell>
        <mxCell id="Qwn-BGKayNcmydiOAecQ-27" value="&lt;p style=&quot;margin:0px;margin-top:6px;text-align:center;&quot;&gt;&lt;b&gt;Component&lt;/b&gt;&lt;/p&gt;&lt;hr size=&quot;1&quot; style=&quot;border-style:solid;&quot;&gt;&lt;p style=&quot;margin:0px;margin-left:8px;&quot;&gt;База данных&lt;/p&gt;" style="align=left;overflow=fill;html=1;dropTarget=0;whiteSpace=wrap;" parent="1" vertex="1">
          <mxGeometry x="430" y="550" width="190" height="90" as="geometry" />
        </mxCell>
        <mxCell id="Qwn-BGKayNcmydiOAecQ-28" value="" style="shape=component;jettyWidth=8;jettyHeight=4;" parent="Qwn-BGKayNcmydiOAecQ-27" vertex="1">
          <mxGeometry x="1" width="20" height="20" relative="1" as="geometry">
            <mxPoint x="-24" y="4" as="offset" />
          </mxGeometry>
        </mxCell>
        <mxCell id="Qwn-BGKayNcmydiOAecQ-29" value="&lt;p style=&quot;margin:0px;margin-top:6px;text-align:center;&quot;&gt;&lt;b&gt;Component&lt;/b&gt;&lt;/p&gt;&lt;hr size=&quot;1&quot; style=&quot;border-style:solid;&quot;&gt;&lt;p style=&quot;margin:0px;margin-left:8px;&quot;&gt;Модуль формирования отчетов&lt;/p&gt;" style="align=left;overflow=fill;html=1;dropTarget=0;whiteSpace=wrap;" parent="1" vertex="1">
          <mxGeometry x="180" y="550" width="190" height="90" as="geometry" />
        </mxCell>
        <mxCell id="Qwn-BGKayNcmydiOAecQ-30" value="" style="shape=component;jettyWidth=8;jettyHeight=4;" parent="Qwn-BGKayNcmydiOAecQ-29" vertex="1">
          <mxGeometry x="1" width="20" height="20" relative="1" as="geometry">
            <mxPoint x="-24" y="4" as="offset" />
          </mxGeometry>
        </mxCell>
        <mxCell id="Qwn-BGKayNcmydiOAecQ-31" value="&lt;p style=&quot;margin:0px;margin-top:6px;text-align:center;&quot;&gt;&lt;b&gt;Interface&lt;/b&gt;&lt;/p&gt;&lt;hr size=&quot;1&quot; style=&quot;border-style:solid;&quot;&gt;&lt;p style=&quot;margin:0px;margin-left:8px;&quot;&gt;Интерфейс администратора&lt;/p&gt;" style="align=left;overflow=fill;html=1;dropTarget=0;whiteSpace=wrap;" parent="1" vertex="1">
          <mxGeometry x="245" y="380" width="190" height="90" as="geometry" />
        </mxCell>
        <mxCell id="Qwn-BGKayNcmydiOAecQ-32" value="" style="shape=component;jettyWidth=8;jettyHeight=4;" parent="Qwn-BGKayNcmydiOAecQ-31" vertex="1">
          <mxGeometry x="1" width="20" height="20" relative="1" as="geometry">
            <mxPoint x="-24" y="4" as="offset" />
          </mxGeometry>
        </mxCell>
        <mxCell id="Qwn-BGKayNcmydiOAecQ-33" value="&lt;p style=&quot;margin:0px;margin-top:6px;text-align:center;&quot;&gt;&lt;b&gt;Interface&lt;/b&gt;&lt;/p&gt;&lt;hr size=&quot;1&quot; style=&quot;border-style:solid;&quot;&gt;&lt;p style=&quot;margin:0px;margin-left:8px;&quot;&gt;Интерфейс клиента&lt;/p&gt;" style="align=left;overflow=fill;html=1;dropTarget=0;whiteSpace=wrap;" parent="1" vertex="1">
          <mxGeometry x="615" y="380" width="190" height="90" as="geometry" />
        </mxCell>
        <mxCell id="Qwn-BGKayNcmydiOAecQ-34" value="" style="shape=component;jettyWidth=8;jettyHeight=4;" parent="Qwn-BGKayNcmydiOAecQ-33" vertex="1">
          <mxGeometry x="1" width="20" height="20" relative="1" as="geometry">
            <mxPoint x="-24" y="4" as="offset" />
          </mxGeometry>
        </mxCell>
        <mxCell id="Qwn-BGKayNcmydiOAecQ-37" style="edgeStyle=orthogonalEdgeStyle;rounded=0;orthogonalLoop=1;jettySize=auto;html=1;exitX=0;exitY=0.5;exitDx=0;exitDy=0;exitPerimeter=0;fontSize=12;startSize=8;endSize=8;endArrow=none;startFill=0;" parent="1" source="Qwn-BGKayNcmydiOAecQ-36" target="Qwn-BGKayNcmydiOAecQ-31" edge="1">
          <mxGeometry relative="1" as="geometry">
            <Array as="points">
              <mxPoint x="275" y="370" />
              <mxPoint x="275" y="370" />
            </Array>
          </mxGeometry>
        </mxCell>
        <mxCell id="Qwn-BGKayNcmydiOAecQ-36" value="" style="shape=providedRequiredInterface;html=1;verticalLabelPosition=bottom;sketch=0;rotation=-90;direction=east;" parent="1" vertex="1">
          <mxGeometry x="260" y="320" width="30" height="30" as="geometry" />
        </mxCell>
        <mxCell id="Qwn-BGKayNcmydiOAecQ-39" style="edgeStyle=orthogonalEdgeStyle;rounded=0;orthogonalLoop=1;jettySize=auto;html=1;fontSize=12;startSize=8;endSize=8;endArrow=none;startFill=0;entryX=1;entryY=0.5;entryDx=0;entryDy=0;entryPerimeter=0;" parent="1" source="Qwn-BGKayNcmydiOAecQ-27" target="Qwn-BGKayNcmydiOAecQ-36" edge="1">
          <mxGeometry relative="1" as="geometry">
            <mxPoint x="275" y="280" as="sourcePoint" />
            <mxPoint x="260" y="320" as="targetPoint" />
            <Array as="points">
              <mxPoint x="460" y="300" />
              <mxPoint x="275" y="300" />
            </Array>
          </mxGeometry>
        </mxCell>
        <mxCell id="Qwn-BGKayNcmydiOAecQ-40" style="edgeStyle=orthogonalEdgeStyle;rounded=0;orthogonalLoop=1;jettySize=auto;html=1;exitX=1;exitY=0.5;exitDx=0;exitDy=0;exitPerimeter=0;fontSize=12;startSize=8;endSize=8;endArrow=none;startFill=0;" parent="1" source="Qwn-BGKayNcmydiOAecQ-57" target="Qwn-BGKayNcmydiOAecQ-27" edge="1">
          <mxGeometry relative="1" as="geometry">
            <mxPoint x="574" y="530" as="targetPoint" />
            <Array as="points">
              <mxPoint x="574" y="540" />
              <mxPoint x="574" y="540" />
            </Array>
          </mxGeometry>
        </mxCell>
        <mxCell id="Qwn-BGKayNcmydiOAecQ-41" value="" style="shape=providedRequiredInterface;html=1;verticalLabelPosition=bottom;sketch=0;rotation=-90;direction=west;" parent="1" vertex="1">
          <mxGeometry x="559" y="470" width="30" height="30" as="geometry" />
        </mxCell>
        <mxCell id="Qwn-BGKayNcmydiOAecQ-42" style="edgeStyle=orthogonalEdgeStyle;rounded=0;orthogonalLoop=1;jettySize=auto;html=1;fontSize=12;startSize=8;endSize=8;endArrow=none;startFill=0;entryX=0;entryY=0.5;entryDx=0;entryDy=0;entryPerimeter=0;" parent="1" source="Qwn-BGKayNcmydiOAecQ-33" target="Qwn-BGKayNcmydiOAecQ-41" edge="1">
          <mxGeometry relative="1" as="geometry">
            <mxPoint x="574" y="430" as="sourcePoint" />
            <mxPoint x="584" y="540" as="targetPoint" />
            <Array as="points">
              <mxPoint x="574" y="440" />
            </Array>
          </mxGeometry>
        </mxCell>
        <mxCell id="Qwn-BGKayNcmydiOAecQ-46" style="edgeStyle=orthogonalEdgeStyle;rounded=0;orthogonalLoop=1;jettySize=auto;html=1;exitX=1;exitY=0.5;exitDx=0;exitDy=0;exitPerimeter=0;fontSize=12;startSize=8;endSize=8;endArrow=none;startFill=0;" parent="1" source="Qwn-BGKayNcmydiOAecQ-47" target="Qwn-BGKayNcmydiOAecQ-27" edge="1">
          <mxGeometry relative="1" as="geometry">
            <mxPoint x="495" y="400" as="targetPoint" />
            <Array as="points">
              <mxPoint x="495" y="510" />
              <mxPoint x="495" y="510" />
            </Array>
          </mxGeometry>
        </mxCell>
        <mxCell id="Qwn-BGKayNcmydiOAecQ-47" value="" style="shape=providedRequiredInterface;html=1;verticalLabelPosition=bottom;sketch=0;rotation=-90;direction=west;" parent="1" vertex="1">
          <mxGeometry x="480" y="340" width="30" height="30" as="geometry" />
        </mxCell>
        <mxCell id="Qwn-BGKayNcmydiOAecQ-48" style="edgeStyle=orthogonalEdgeStyle;rounded=0;orthogonalLoop=1;jettySize=auto;html=1;fontSize=12;startSize=8;endSize=8;endArrow=none;startFill=0;entryX=0;entryY=0.5;entryDx=0;entryDy=0;entryPerimeter=0;" parent="1" source="Qwn-BGKayNcmydiOAecQ-9" target="Qwn-BGKayNcmydiOAecQ-47" edge="1">
          <mxGeometry relative="1" as="geometry">
            <mxPoint x="495" y="300" as="sourcePoint" />
            <mxPoint x="505" y="410" as="targetPoint" />
            <Array as="points">
              <mxPoint x="495" y="290" />
              <mxPoint x="495" y="290" />
            </Array>
          </mxGeometry>
        </mxCell>
        <mxCell id="Qwn-BGKayNcmydiOAecQ-51" style="edgeStyle=orthogonalEdgeStyle;rounded=0;orthogonalLoop=1;jettySize=auto;html=1;exitX=1;exitY=0.5;exitDx=0;exitDy=0;exitPerimeter=0;fontSize=12;startSize=8;endSize=8;endArrow=none;startFill=0;" parent="1" source="Qwn-BGKayNcmydiOAecQ-52" target="Qwn-BGKayNcmydiOAecQ-29" edge="1">
          <mxGeometry relative="1" as="geometry">
            <mxPoint x="584" y="560" as="targetPoint" />
            <Array as="points" />
          </mxGeometry>
        </mxCell>
        <mxCell id="Qwn-BGKayNcmydiOAecQ-52" value="" style="shape=providedRequiredInterface;html=1;verticalLabelPosition=bottom;sketch=0;rotation=-90;direction=west;" parent="1" vertex="1">
          <mxGeometry x="260" y="490" width="30" height="30" as="geometry" />
        </mxCell>
        <mxCell id="Qwn-BGKayNcmydiOAecQ-53" style="edgeStyle=orthogonalEdgeStyle;rounded=0;orthogonalLoop=1;jettySize=auto;html=1;fontSize=12;startSize=8;endSize=8;endArrow=none;startFill=0;entryX=0;entryY=0.5;entryDx=0;entryDy=0;entryPerimeter=0;" parent="1" source="Qwn-BGKayNcmydiOAecQ-31" target="Qwn-BGKayNcmydiOAecQ-52" edge="1">
          <mxGeometry relative="1" as="geometry">
            <mxPoint x="625" y="450" as="sourcePoint" />
            <mxPoint x="594" y="550" as="targetPoint" />
            <Array as="points">
              <mxPoint x="305" y="470" />
              <mxPoint x="305" y="470" />
            </Array>
          </mxGeometry>
        </mxCell>
        <mxCell id="Qwn-BGKayNcmydiOAecQ-54" style="edgeStyle=orthogonalEdgeStyle;rounded=0;orthogonalLoop=1;jettySize=auto;html=1;exitX=1;exitY=0.5;exitDx=0;exitDy=0;exitPerimeter=0;fontSize=12;startSize=8;endSize=8;endArrow=none;startFill=0;" parent="1" source="Qwn-BGKayNcmydiOAecQ-55" target="Qwn-BGKayNcmydiOAecQ-9" edge="1">
          <mxGeometry relative="1" as="geometry">
            <mxPoint x="594" y="570" as="targetPoint" />
            <Array as="points">
              <mxPoint x="695" y="260" />
            </Array>
          </mxGeometry>
        </mxCell>
        <mxCell id="Qwn-BGKayNcmydiOAecQ-55" value="" style="shape=providedRequiredInterface;html=1;verticalLabelPosition=bottom;sketch=0;rotation=-90;direction=east;" parent="1" vertex="1">
          <mxGeometry x="680" y="310" width="30" height="30" as="geometry" />
        </mxCell>
        <mxCell id="Qwn-BGKayNcmydiOAecQ-56" style="edgeStyle=orthogonalEdgeStyle;rounded=0;orthogonalLoop=1;jettySize=auto;html=1;fontSize=12;startSize=8;endSize=8;endArrow=none;startFill=0;entryX=0;entryY=0.5;entryDx=0;entryDy=0;entryPerimeter=0;" parent="1" source="Qwn-BGKayNcmydiOAecQ-33" target="Qwn-BGKayNcmydiOAecQ-55" edge="1">
          <mxGeometry relative="1" as="geometry">
            <mxPoint x="635" y="460" as="sourcePoint" />
            <mxPoint x="604" y="560" as="targetPoint" />
            <Array as="points">
              <mxPoint x="695" y="380" />
              <mxPoint x="695" y="380" />
            </Array>
          </mxGeometry>
        </mxCell>
        <mxCell id="Qwn-BGKayNcmydiOAecQ-58" value="" style="edgeStyle=orthogonalEdgeStyle;rounded=0;orthogonalLoop=1;jettySize=auto;html=1;exitX=1;exitY=0.5;exitDx=0;exitDy=0;exitPerimeter=0;fontSize=12;startSize=8;endSize=8;endArrow=none;startFill=0;" parent="1" source="Qwn-BGKayNcmydiOAecQ-41" target="Qwn-BGKayNcmydiOAecQ-57" edge="1">
          <mxGeometry relative="1" as="geometry">
            <mxPoint x="574" y="550" as="targetPoint" />
            <Array as="points" />
            <mxPoint x="574" y="500" as="sourcePoint" />
          </mxGeometry>
        </mxCell>
        <mxCell id="Qwn-BGKayNcmydiOAecQ-57" value="" style="rounded=0;whiteSpace=wrap;html=1;" parent="1" vertex="1">
          <mxGeometry x="562" y="530" width="24" height="25" as="geometry" />
        </mxCell>
        <mxCell id="Qwn-BGKayNcmydiOAecQ-59" value="" style="rounded=0;whiteSpace=wrap;html=1;" parent="1" vertex="1">
          <mxGeometry x="483" y="530" width="24" height="25" as="geometry" />
        </mxCell>
        <mxCell id="QfP1XRulWU53kCYnr35k-2" value="" style="rounded=0;whiteSpace=wrap;html=1;" vertex="1" parent="1">
          <mxGeometry x="448" y="530" width="24" height="25" as="geometry" />
        </mxCell>
      </root>
    </mxGraphModel>
  </diagram>
</mxfile>
